<svg width="61" height="23" viewBox="0 0 61 23" fill="none" xmlns="http://www.w3.org/2000/svg">
<path d="M45.6501 15.7351H43.5421V18.4381H41.4001V15.7351H34.8721V14.2051L40.7371 6.53808H43.1001L37.5751 13.8651H41.4681V11.4681H43.5421V13.8651H45.6501V15.7351ZM48.2382 18.5571C47.8529 18.5571 47.5242 18.4268 47.2522 18.1661C46.9802 17.8941 46.8442 17.5541 46.8442 17.1461C46.8442 16.7268 46.9746 16.3868 47.2352 16.1261C47.5072 15.8654 47.8416 15.7351 48.2382 15.7351C48.6349 15.7351 48.9636 15.8654 49.2242 16.1261C49.4962 16.3868 49.6322 16.7268 49.6322 17.1461C49.6322 17.5541 49.4962 17.8941 49.2242 18.1661C48.9522 18.4268 48.6236 18.5571 48.2382 18.5571ZM54.7856 11.1451C56.463 11.1451 57.704 11.4737 58.5086 12.1311C59.3133 12.7771 59.7156 13.6611 59.7156 14.7831C59.7156 15.4971 59.54 16.1431 59.1886 16.7211C58.8373 17.2991 58.3103 17.7581 57.6076 18.0981C56.905 18.4381 56.038 18.6081 55.0066 18.6081C54.1566 18.6081 53.335 18.4891 52.5416 18.2511C51.7483 18.0018 51.0796 17.6618 50.5356 17.2311L51.4706 15.5141C51.9126 15.8768 52.4396 16.1658 53.0516 16.3811C53.675 16.5851 54.3153 16.6871 54.9726 16.6871C55.7546 16.6871 56.3666 16.5284 56.8086 16.2111C57.262 15.8824 57.4886 15.4348 57.4886 14.8681C57.4886 14.2561 57.245 13.7971 56.7576 13.4911C56.2816 13.1738 55.46 13.0151 54.2926 13.0151H51.4196L52.0316 6.53808H59.0186V8.39108H53.9016L53.6466 11.1451H54.7856Z" fill="#838383"/>
<path d="M12.6268 18.0143L5.41621 22.3656L7.3765 14.2449L0.960785 8.81491L9.38218 8.14829L12.6268 0.439671L15.8715 8.14829L24.2941 8.81491L17.8772 14.2449L19.8375 22.3656L12.6268 18.0143Z" fill="#FFCE7F"/>
</svg>
