<svg width="62" height="23" viewBox="0 0 62 23" fill="none" xmlns="http://www.w3.org/2000/svg">
<path d="M45.6501 15.7351H43.5421V18.4381H41.4001V15.7351H34.8721V14.2051L40.7371 6.53808H43.1001L37.5751 13.8651H41.4681V11.4681H43.5421V13.8651H45.6501V15.7351ZM48.2382 18.5571C47.8529 18.5571 47.5242 18.4268 47.2522 18.1661C46.9802 17.8941 46.8442 17.5541 46.8442 17.1461C46.8442 16.7268 46.9745 16.3868 47.2352 16.1261C47.5072 15.8654 47.8415 15.7351 48.2382 15.7351C48.6349 15.7351 48.9635 15.8654 49.2242 16.1261C49.4962 16.3868 49.6322 16.7268 49.6322 17.1461C49.6322 17.5541 49.4962 17.8941 49.2242 18.1661C48.9522 18.4268 48.6235 18.5571 48.2382 18.5571ZM59.7896 6.53808V8.01708L55.1656 18.4381H52.8026L57.2736 8.40808H52.5986V10.4311H50.5416V6.53808H59.7896Z" fill="#838383"/>
<path d="M12.6268 18.0143L5.41618 22.3656L7.37647 14.2449L0.960754 8.81491L9.38215 8.14829L12.6268 0.439671L15.8715 8.14829L24.2941 8.81491L17.8771 14.2449L19.8374 22.3656L12.6268 18.0143Z" fill="#FFCE7F"/>
</svg>
